<?xml version="1.0" encoding="utf-8"?>
<!-- Generator: Adobe Illustrator 22.0.1, SVG Export Plug-In . SVG Version: 6.00 Build 0)  -->
<svg version="1.1" id="Capa_1" xmlns="http://www.w3.org/2000/svg" xmlns:xlink="http://www.w3.org/1999/xlink" x="0px" y="0px"
	 viewBox="0 0 512.1 512.1" style="enable-background:new 0 0 512.1 512.1;fill: #fffff" xml:space="preserve">
<g transform="translate(0 -1)" >
	<path style="fill: #ffffff"  d="M272.2,513.1c-0.1,0-0.2,0-0.3,0c-2.3-0.1-4.5-1.1-6-2.8c-1.6-1.7-2.4-3.9-2.3-6.2c6.4-183.1-16.8-265.5-17-266.3
		c-0.9-3-0.1-6.2,2.1-8.4s5.3-3.2,8.3-2.4c3,0.7,5.4,3,6.3,6c1,3.4,24.2,85.9,17.7,271.7C280.7,509.3,276.9,513,272.2,513.1
		L272.2,513.1z"/>
	<path style="fill: #ffffff" d="M488.3,287.4c-4.5,0-8.2-3.4-8.6-7.8c-3.3-33.7-10.9-95.3-25.1-128.8C408.1,40.9,281.5-10.8,171.3,35.2
		c-14.6,6.1-28.6,13.4-41.9,22c-2.6,1.7-5.9,1.9-8.7,0.5s-4.6-4.2-4.7-7.3s1.3-6.1,4-7.7c14.2-9.2,29.1-17,44.7-23.5
		c119-49.7,255.8,6.2,306,124.9c14.3,33.8,22.2,91.4,26.4,133.8c0.5,4.8-3,9-7.8,9.5C488.9,287.4,488.6,287.4,488.3,287.4z"/>
	<path style="fill: #ffffff" d="M40.7,356.8c-3.8,0-7.2-2.5-8.3-6.2C-11.1,204.4,35.3,118.9,82,73c2.2-2.2,5.4-3,8.4-2.2c3,0.8,5.3,3.2,6.1,6.2
		s-0.1,6.2-2.3,8.4C32.1,146.5,16.5,236.5,49,345.7c0.8,2.6,0.3,5.5-1.4,7.7C46,355.5,43.4,356.8,40.7,356.8L40.7,356.8z"/>
	<path style="fill: #ffffff" d="M97.8,443.6c-2.3,0-4.5-0.9-6.1-2.5c-1.6-1.6-2.5-3.8-2.5-6.1c0-62-0.2-101.2-3.3-122.4c-1.6-9.4-3.7-18.6-6.5-27.7
		c-25-88.7,20.1-182.2,105.2-217.7c24.3-10.2,50.5-15,76.8-13.9c69.4,2.5,145,61.1,168.6,130.6c19.1,56.4,19.4,149.9,17.1,234
		c-0.2,4.7-4.2,8.5-8.9,8.4c-4.8-0.1-8.6-4.1-8.4-8.9c2.3-82.5,2.1-174.2-16.2-228c-21.1-62.2-91-116.6-152.8-118.8
		c-52.7-1.9-103.1,21.5-135.7,62.9s-43.4,95.9-29.1,146.7c3,9.8,5.3,19.8,6.9,29.9c3.3,22.5,3.5,60.2,3.5,124.9
		c0,2.3-0.9,4.5-2.5,6.1C102.4,442.7,100.1,443.6,97.8,443.6z"/>
	<path style="fill: #ffffff" d="M385,469.7c-0.1,0-0.2,0-0.3,0c-2.3-0.1-4.5-1.1-6-2.8c-1.6-1.7-2.4-3.9-2.3-6.2c4.9-139.5,3.5-219.5-17.6-269.3
		c-21.2-50-75-77.9-128.1-66.2c-4.7,1-9.3-1.9-10.3-6.6s1.9-9.3,6.6-10.3c61.2-13.4,123.4,18.7,147.8,76.4
		c22.5,53.1,24,131.5,19,276.6C393.5,466,389.7,469.7,385,469.7L385,469.7z M158.6,452.3c-2.3,0-4.5-0.9-6.1-2.5
		c-1.6-1.6-2.5-3.8-2.5-6.1c0.8-55.5-5.1-110.9-17.8-164.9c-15.8-58.4,3.6-118.7,48.3-150.1c2.5-1.8,5.8-2.1,8.6-0.8
		c2.8,1.3,4.7,4,5,7.1c0.3,3.1-1.1,6.1-3.7,7.9c-38.7,27.2-55.4,79.9-41.5,131.3c0.7,2.6,18.4,67,18.4,169.5c0,2.3-0.9,4.5-2.5,6.1
		C163.1,451.4,160.9,452.3,158.6,452.3L158.6,452.3z"/>
	<path class="stroke"  style="fill: #ffffff" d="M332.9,495.7c-0.1,0-0.2,0-0.3,0c-2.3-0.1-4.5-1.1-6-2.7c-1.6-1.7-2.4-3.9-2.3-6.2c0.4-10.9,0-27.9-0.3-42.8
		c-0.2-10.3-0.4-19.8-0.4-26.3c0-4.8,3.9-8.6,8.7-8.6h0.1c2.3,0,4.5,0.9,6.1,2.6c1.6,1.6,2.5,3.9,2.5,6.2c0,6.4,0.2,15.7,0.4,25.8
		c0.3,15.2,0.7,32.4,0.3,43.8C341.4,492,337.6,495.7,332.9,495.7L332.9,495.7z"/>
	<path class="stroke" style="fill: #ffffff" d="M210.7,495.7c-2.3,0-4.5-0.9-6.1-2.5c-1.6-1.6-2.5-3.8-2.5-6.1c0-103.2-5.5-207.2-12.1-227.1c-12.6-35,4.1-73.8,38.2-88.6
		c35.3-14.7,75.8,1.8,90.7,37c17.3,40.9,22.4,112.7,23.6,165.7c0.1,4.8-3.7,8.8-8.5,8.9h-0.2c-4.7,0-8.6-3.8-8.7-8.5
		c-1.2-51.5-6-120.9-22.2-159.3c-11.1-26.4-41.6-38.9-68-27.8c-25.7,11.4-38.1,40.8-28.4,67.2c8,24.3,12.9,139.6,12.9,232.5
		c0,2.3-0.9,4.5-2.5,6.1C215.2,494.8,213,495.7,210.7,495.7z"/>
</g>
</svg>
